<?xml version="1.0" encoding="utf-8"?>
<!-- Generator: Adobe Illustrator 22.0.1, SVG Export Plug-In . SVG Version: 6.00 Build 0)  -->
<svg version="1.1" id="Layer_1" xmlns="http://www.w3.org/2000/svg" xmlns:xlink="http://www.w3.org/1999/xlink" x="0px" y="0px"
	 viewBox="0 0 512 512" style="enable-background:new 0 0 512 512;" xml:space="preserve">
<style type="text/css">
	.st0{fill:#22FF86;}
</style>
<g>
	<g>
		<path d="M501.8,160.1H351.9V10.2c0-5.6-4.6-10.2-10.2-10.2H170.3c-5.6,0-10.2,4.6-10.2,10.2v149.9H10.2c-5.6,0-10.2,4.6-10.2,10.2
			v171.3c0,5.6,4.6,10.2,10.2,10.2h149.9v149.9c0,5.6,4.6,10.2,10.2,10.2h171.3c5.6,0,10.2-4.6,10.2-10.2V351.9h149.9
			c5.6,0,10.2-4.6,10.2-10.2V170.3C512,164.7,507.4,160.1,501.8,160.1z M491.6,331.5H341.7c-5.6,0-10.2,4.6-10.2,10.2v149.9H180.5
			V341.7c0-5.6-4.6-10.2-10.2-10.2H20.4V180.5h149.9c5.6,0,10.2-4.6,10.2-10.2V20.4h150.9v149.9c0,5.6,4.6,10.2,10.2,10.2h149.9
			V331.5z"/>
	</g>
</g>
<g>
	<g>
		<path class="st0" d="M428.4,197.1h-6.6c-6.1,0-11.1,5-11.1,11.1c0,6.1,5,11.1,11.1,11.1h6.6c6.1,0,11.1-5,11.1-11.1
			C439.4,202.1,434.5,197.1,428.4,197.1z"/>
	</g>
</g>
<g>
	<g>
		<path class="st0" d="M383.3,197.1h-83.1c-6.1,0-11.1,5-11.1,11.1c0,6.1,5,11.1,11.1,11.1h83.1c6.1,0,11.1-5,11.1-11.1
			C394.3,202.1,389.4,197.1,383.3,197.1z"/>
	</g>
</g>
</svg>
