<?xml version="1.0" encoding="utf-8"?>
<!-- Generator: Adobe Illustrator 22.0.1, SVG Export Plug-In . SVG Version: 6.00 Build 0)  -->
<svg version="1.1" id="Capa_1" xmlns="http://www.w3.org/2000/svg" xmlns:xlink="http://www.w3.org/1999/xlink" x="0px" y="0px"
	 viewBox="0 0 512 512" style="enable-background:new 0 0 512 512;" xml:space="preserve">
<style type="text/css">
	.st0{fill:#22FF86;}
</style>
<ellipse class="st0" cx="70.6" cy="95.2" rx="58.9" ry="57.1"/>
<g>
	<g>
		<path d="M502,26h-83.7c-3.1,0-6,1.4-7.9,3.8L366.2,86H139.3c-4.9-33.9-34.1-60-69.3-60C31.4,26,0,57.4,0,96c0,38.6,31.4,70,70,70
			c13,0,25.6-3.6,36.6-10.4c4,5,8,9.9,11.9,14.9c0,0,0,0,0,0.1c2.8,3.5,5.5,7,8.3,10.4c21.3,26.7,43.3,54.4,65,79.2
			c27.3,31.1,29.8,50.3,29.8,93.3v78.1c0,26.7-7,34.4-31.1,34.4H186c-5.5,0-10,4.5-10,10c0,5.5,4.5,10,10,10h140c5.5,0,10-4.5,10-10
			c0-5.5-4.5-10-10-10h-4.6c-24.1,0-31.1-7.7-31.1-34.4v-78.1c0-43,2.6-62.2,29.8-93.3c21.7-24.8,43.7-52.4,65-79.2
			c21.1-26.5,43-54,64.3-78.4c0,0,0.1-0.1,0.1-0.1c0.1-0.1,0.2-0.3,0.4-0.4c0.1-0.1,0.2-0.2,0.3-0.3c0.1-0.1,0.2-0.3,0.3-0.5
			c0.1-0.1,0.2-0.3,0.2-0.4c0.1-0.1,0.2-0.3,0.2-0.5c0.1-0.1,0.1-0.3,0.2-0.4c0.1-0.1,0.1-0.3,0.2-0.5c0.1-0.2,0.1-0.3,0.2-0.5
			c0-0.2,0.1-0.3,0.1-0.5c0-0.2,0.1-0.3,0.1-0.5c0-0.1,0.1-0.3,0.1-0.4c0-0.2,0.1-0.4,0.1-0.5c0-0.1,0-0.3,0-0.4c0-0.2,0-0.4,0-0.6
			c0,0,0-0.1,0-0.1c0-0.1,0-0.2,0-0.3c0-0.2,0-0.4,0-0.5c0-0.2,0-0.3-0.1-0.5s0-0.3-0.1-0.5c0-0.2-0.1-0.3-0.1-0.5
			c0-0.1-0.1-0.3-0.1-0.4c0-0.2-0.1-0.3-0.2-0.5c0-0.1-0.1-0.3-0.2-0.4c-0.1-0.2-0.1-0.3-0.2-0.5c-0.1-0.2-0.1-0.3-0.2-0.4
			c-0.1-0.1-0.1-0.3-0.2-0.4c-0.1-0.2-0.2-0.3-0.3-0.4c-0.1-0.1-0.2-0.2-0.3-0.4c-0.1-0.1-0.2-0.3-0.3-0.4c-0.1-0.1-0.2-0.2-0.3-0.4
			c-0.1-0.1-0.2-0.2-0.3-0.4c-0.1-0.1-0.3-0.3-0.4-0.4c-0.1-0.1-0.1-0.1-0.2-0.2c0,0-0.1-0.1-0.1-0.1c-0.1-0.1-0.3-0.2-0.4-0.4
			c-0.1-0.1-0.2-0.2-0.3-0.3c-0.1-0.1-0.3-0.2-0.5-0.3c-0.1-0.1-0.2-0.2-0.4-0.2c-0.2-0.1-0.3-0.2-0.5-0.2c-0.1-0.1-0.3-0.1-0.4-0.2
			c-0.2-0.1-0.3-0.1-0.5-0.2c-0.1-0.1-0.3-0.1-0.4-0.2c-0.2-0.1-0.3-0.1-0.5-0.1c-0.2,0-0.3-0.1-0.5-0.1c-0.2,0-0.3-0.1-0.5-0.1
			c-0.2,0-0.3-0.1-0.5-0.1c-0.1,0-0.3,0-0.5,0c-0.2,0-0.4,0-0.5,0c0,0-0.1,0-0.1,0h-50.4l31.5-40H502c5.5,0,10-4.5,10-10
			C512,30.5,507.5,26,502,26z M70,146c-27.6,0-50-22.4-50-50s22.4-50,50-50c24.1,0,44.3,17.2,49,40H70c0,0-0.1,0-0.1,0
			c-0.2,0-0.4,0-0.6,0c-0.1,0-0.3,0-0.4,0c-0.2,0-0.4,0.1-0.6,0.1c-0.1,0-0.3,0-0.4,0.1c-0.2,0-0.4,0.1-0.5,0.1
			c-0.1,0-0.3,0.1-0.4,0.1c-0.2,0.1-0.3,0.1-0.5,0.2c-0.1,0.1-0.3,0.1-0.4,0.2c-0.2,0.1-0.3,0.1-0.5,0.2c-0.1,0.1-0.3,0.1-0.4,0.2
			c-0.1,0.1-0.3,0.2-0.4,0.2c-0.1,0.1-0.3,0.2-0.4,0.3C64.2,87.9,64.1,88,64,88c-0.1,0.1-0.3,0.2-0.4,0.3c0,0-0.1,0.1-0.1,0.1
			c-0.1,0.1-0.1,0.1-0.2,0.2c-0.1,0.1-0.3,0.2-0.4,0.4c-0.1,0.1-0.2,0.2-0.3,0.4c-0.1,0.1-0.2,0.2-0.3,0.4c-0.1,0.1-0.2,0.3-0.3,0.4
			c-0.1,0.1-0.2,0.2-0.3,0.4c-0.1,0.1-0.2,0.3-0.3,0.4c-0.1,0.1-0.2,0.3-0.2,0.4c-0.1,0.1-0.1,0.3-0.2,0.4c-0.1,0.2-0.1,0.3-0.2,0.5
			c-0.1,0.1-0.1,0.3-0.2,0.4c-0.1,0.2-0.1,0.3-0.2,0.5c0,0.1-0.1,0.3-0.1,0.4c0,0.2-0.1,0.3-0.1,0.5c0,0.2-0.1,0.3-0.1,0.5
			c0,0.2,0,0.3-0.1,0.5c0,0.2,0,0.4,0,0.5c0,0.1,0,0.2,0,0.3c0,0,0,0.1,0,0.1c0,0.2,0,0.4,0,0.6c0,0.1,0,0.3,0,0.4
			c0,0.2,0.1,0.4,0.1,0.5c0,0.1,0,0.3,0.1,0.4c0,0.2,0.1,0.3,0.1,0.5c0,0.2,0.1,0.3,0.1,0.5c0.1,0.2,0.1,0.3,0.2,0.5
			s0.1,0.3,0.2,0.5c0.1,0.1,0.1,0.3,0.2,0.4c0.1,0.2,0.1,0.3,0.2,0.4c0.1,0.1,0.2,0.3,0.2,0.4c0.1,0.2,0.2,0.3,0.3,0.4
			c0.1,0.1,0.2,0.2,0.3,0.3c0.1,0.2,0.2,0.3,0.3,0.4c0,0,0.1,0.1,0.1,0.1c10.4,11.9,20.9,24.5,31.4,37.3C86.6,143.9,78.4,146,70,146
			z M116.2,135.7C116.2,135.7,116.2,135.6,116.2,135.7C116.1,135.6,116.1,135.6,116.2,135.7c-8.1-10.1-16.3-20-24.4-29.7h258.7
			L301,168.8c-20.2-1.9-39.3-7.2-58.1-12.5c-35.8-10-72.8-20.4-113.4-4.1C125.1,146.7,120.6,141.2,116.2,135.7z M277.5,466h-42.9
			l0,0c5.9-10.1,7.1-22.6,7.1-34.4v-78.1c0-29.3-1.4-50.3-10.9-71.1c8,2.2,16.4,3.3,24.9,3.4c0.1,0,0.3,0,0.4,0
			c8.6,0,17.1-1.2,25.1-3.3c-9.5,20.8-10.9,41.7-10.9,71.1v78.1C270.4,443.4,271.6,455.9,277.5,466z M305.4,246.7
			c-12.2,12.1-30.2,19.1-49.3,19.1c-0.1,0-0.2,0-0.4,0c-19.1-0.1-37-7-49.2-19.1c-12.3-14.1-24.8-29.1-37.2-44.5
			c13-1.2,24.8,0.1,36.2,4.1c1.1,0.4,2.2,0.6,3.3,0.6c4.1,0,8-2.6,9.5-6.7c1.8-5.2-1-10.9-6.2-12.7c-17.7-6.1-36.5-7.2-57.3-3.3
			c-4.1-5.1-8.2-10.3-12.2-15.4c31.9-10.7,61.4-2.5,94.9,6.9c15.5,4.3,31.8,8.9,49.1,11.6l-20,25.4c-3.4,4.3-2.7,10.6,1.7,14
			c1.8,1.4,4,2.1,6.2,2.1c3,0,5.9-1.3,7.9-3.8l27.9-35.4c2,0.1,4.1,0.1,6.2,0.1c12.8,0,26.3-1.4,40.4-5
			C339.7,205.9,322.4,227.2,305.4,246.7z M420.2,106c-13.4,15.9-26.8,32.5-39.9,49c-19.3,9-37.3,13.1-54.2,14.3l49.8-63.3H420.2z"/>
	</g>
</g>
<g>
	<g>
		<path d="M240.4,195.1c-0.1,0-0.3-0.1-0.4-0.1c-5.3-1.5-10.8,1.6-12.3,6.9c-1.5,5.3,1.6,10.8,6.8,12.3l0.3,0.1
			c0.9,0.3,1.9,0.4,2.8,0.4c4.3,0,8.3-2.8,9.6-7.2C248.7,202.2,245.7,196.6,240.4,195.1z"/>
	</g>
</g>
</svg>
