<?xml version="1.0" encoding="utf-8"?>
<!-- Generator: Adobe Illustrator 22.0.1, SVG Export Plug-In . SVG Version: 6.00 Build 0)  -->
<svg version="1.1" id="Capa_1" xmlns="http://www.w3.org/2000/svg" xmlns:xlink="http://www.w3.org/1999/xlink" x="0px" y="0px"
	 viewBox="0 0 512 512" style="enable-background:new 0 0 512 512;" xml:space="preserve">
<style type="text/css">
	.st0{fill:#22FF86;}
</style>
<ellipse class="st0" cx="410.5" cy="448.7" rx="44.4" ry="51.6"/>
<g>
	<g>
		<path d="M512,382.6c0-59-58.1-99.5-60.6-101.2c-3.4-2.3-7.9-2.3-11.3,0c-2.5,1.7-60.6,42.2-60.6,101.2c0,5,0.6,9.9,1.6,14.7
			c-12.7,14-25.6,34.5-25.6,59.7c0,30.3,24.7,55,55,55c30.3,0,55-24.7,55-55c0-3.7-0.3-7.4-0.8-10.9
			C492.3,437.8,512,412.2,512,382.6z M410.5,492c-19.3,0-35-15.7-35-35c0-29,24-51.2,35-59.9c8.9,7,26.2,22.7,32.5,43.8
			c0.1,0.3,0.1,0.5,0.2,0.8c1.4,4.9,2.2,10,2.2,15.4C445.5,476.3,429.8,492,410.5,492z M459.2,426.8c-13-30.8-41.8-49.5-43.3-50.5
			c-3.3-2.1-7.5-2.1-10.8,0c-0.4,0.3-2.5,1.6-5.7,4c1.2-37.6,33.1-67.4,46.2-78.1c13.5,10.9,46.3,41.6,46.3,80.3
			C492,403.2,478.4,421,459.2,426.8z"/>
	</g>
</g>
<g>
	<g>
		<path d="M497.3,171.6L328.7,2.9c-3.9-3.9-10.2-3.9-14.1,0L268.4,49c-1.9,1.9-2.9,4.4-2.9,7.1s1.1,5.2,2.9,7.1l9.9,9.9L30.8,320.6
			c-41,41-41,107.8,0,148.8c20.5,20.5,47.5,30.8,74.4,30.8c26.9,0,53.9-10.3,74.4-30.8l247.5-247.5l9.9,9.9c2,2,4.5,2.9,7.1,2.9
			s5.1-1,7.1-2.9l46.1-46.1c1.9-1.9,2.9-4.4,2.9-7.1C500.3,176,499.2,173.5,497.3,171.6z M165.5,455.3c-16.1,16.1-37.5,25-60.3,25
			c-22.8,0-44.2-8.9-60.3-25c-16.1-16.1-25-37.5-25-60.3c0-22.8,8.9-44.2,25-60.3L292.5,87.2L413,207.8L165.5,455.3z M444.2,210.6
			L289.6,56.1l9.5-9.5L405.5,153c2,2,4.5,2.9,7.1,2.9s5.1-1,7.1-2.9c3.9-3.9,3.9-10.2,0-14.1L313.3,32.5l8.3-8.3l154.5,154.5
			L444.2,210.6z"/>
	</g>
</g>
<g>
	<g>
		<path d="M448.3,169.9c-0.1-0.6-0.3-1.3-0.6-1.9c-0.2-0.6-0.6-1.2-0.9-1.7c-0.4-0.6-0.8-1.1-1.2-1.5c-2.3-2.3-5.8-3.4-9-2.7
			c-0.6,0.1-1.3,0.3-1.9,0.6c-0.6,0.2-1.2,0.6-1.7,0.9c-0.5,0.4-1.1,0.8-1.5,1.2s-0.9,1-1.2,1.5c-0.4,0.5-0.7,1.1-0.9,1.7
			c-0.2,0.6-0.4,1.2-0.6,1.9c-0.1,0.6-0.2,1.3-0.2,2c0,0.6,0.1,1.3,0.2,1.9c0.1,0.6,0.3,1.3,0.6,1.9c0.2,0.6,0.6,1.2,0.9,1.7
			c0.4,0.6,0.8,1.1,1.2,1.5c0.5,0.5,1,0.9,1.5,1.2c0.5,0.4,1.1,0.7,1.7,0.9c0.6,0.2,1.2,0.4,1.9,0.6c0.6,0.1,1.3,0.2,2,0.2
			c0.6,0,1.3-0.1,2-0.2c0.6-0.1,1.3-0.3,1.9-0.6c0.6-0.2,1.2-0.6,1.7-0.9c0.5-0.4,1.1-0.8,1.5-1.2s0.9-1,1.2-1.5
			c0.4-0.5,0.7-1.1,0.9-1.7c0.2-0.6,0.4-1.2,0.6-1.9s0.2-1.3,0.2-1.9C448.5,171.2,448.4,170.6,448.3,169.9z"/>
	</g>
</g>
<g>
	<g>
		<path d="M313.7,131.4c-12.3-12.3-32.4-12.3-44.8,0c-6,6-9.3,13.9-9.3,22.4s3.3,16.4,9.3,22.4c6.2,6.2,14.3,9.3,22.4,9.3
			c8.1,0,16.2-3.1,22.4-9.3c6-6,9.3-13.9,9.3-22.4S319.7,137.3,313.7,131.4z M299.6,162c-4.5,4.5-11.9,4.5-16.5,0
			c-2.2-2.2-3.4-5.1-3.4-8.2c0-3.1,1.2-6,3.4-8.2c2.3-2.3,5.3-3.4,8.2-3.4s6,1.1,8.2,3.4c2.2,2.2,3.4,5.1,3.4,8.2
			C303,156.9,301.8,159.8,299.6,162z"/>
	</g>
</g>
<g>
	<g>
		<path d="M376.9,207c-1.5-3.7-5.2-6.2-9.2-6.2H211.4c-2.7,0-5.2,1.1-7.1,2.9L59.1,348.9c-25.4,25.4-25.4,66.8,0,92.3
			c12.7,12.7,29.4,19.1,46.1,19.1c16.7,0,33.4-6.4,46.1-19.1l223.3-223.3C377.5,215,378.4,210.7,376.9,207z M164.2,400.1
			L164.2,400.1c-2.2,2.2-5.1,3.4-8.2,3.4c-3.1,0-6-1.2-8.2-3.4c-4.5-4.5-4.5-11.9,0-16.5c2.2-2.2,5.1-3.4,8.2-3.4
			c3.1,0,6,1.2,8.2,3.4C168.7,388.2,168.7,395.6,164.2,400.1z M185,379.3c-1.5-3.6-3.8-6.9-6.7-9.8c-6-6-13.9-9.3-22.4-9.3
			s-16.4,3.3-22.4,9.3c-12.3,12.3-12.3,32.4,0,44.8c2.9,2.9,6.2,5.1,9.8,6.7l-6.1,6.1c-17.6,17.6-46.3,17.6-64,0
			c-8.5-8.5-13.2-19.9-13.2-32c0-12.1,4.7-23.5,13.2-32l92.7-92.7h128L185,379.3z M313.9,250.3H186l29.5-29.5h128L313.9,250.3z"/>
	</g>
</g>
</svg>
